#!OML:ASF X:\für Bonn\!DataBase\2005_08_12_Daniel\c3d\Daniel.ASF
:FULLY-SPECIFIED
:DEGREES
52
root 2.15956 17.0067 0.121232 348.306 -87.9715 -358.665
lowerback 14.4537 -3.79654 -1.8133
upperback 1.2825 -5.45815 -0.895317
thorax -6.6421 -2.65526 1.15662
lowerneck 38.8067 5.6263 -3.37238
upperneck 12.3884 3.40813 1.99513
head -1.45915 0.47949 0.841203
rclavicle 6.22693e-014 -1.15295e-014
rhumerus 371.286 22.8574 63.0195
rradius 38.1572
rwrist -465.42
rhand -46.5442 26.3873
rfingers 7.12502
rthumb -19.269 -2.67809
lclavicle 6.22693e-014 -1.15295e-014
lhumerus 9.58849 -29.1438 -68.1683
lradius 33.6861
lwrist 120.501
lhand -36.22 21.0468
lfingers 7.12502
lthumb -9.32208 50.8207
rfemur 9.46159 9.39393 14.1875
rtibia 20.7795
rfoot -28.3233 -22.6585
rtoes -9.57749
lfemur -0.409032 -13.5997 -14.4275
ltibia 34.5288
lfoot -27.878 6.31568
ltoes -0.50151
53
root 2.13517 17.0152 0.118257 348.886 -87.7899 -358.922
lowerback 13.9318 -3.87387 -1.8765
upperback 1.43637 -5.55316 -0.862762
thorax -6.17741 -2.71166 1.19619
lowerneck 39.7694 5.80281 -3.61112
upperneck 11.6054 3.5006 2.07365
head -1.7552 0.510751 0.889555
rclavicle 1.27346e-015 1.47101e-014
rhumerus 367.859 25.3025 60.4555
rradius 38.443
rwrist -468.482
rhand -48.8507 26.8646
rfingers 7.12502
rthumb -21.4856 -1.96384
lclavicle 1.27346e-015 1.47101e-014
lhumerus 6.37212 -33.8956 -66.7586
lradius 33.3774
lwrist 125.364
lhand -39.9097 22.1056
lfingers 7.12502
lthumb -12.8808 51.6881
rfemur 9.42623 9.64348 14.3085
rtibia 20.5286
rfoot -28.6241 -23.0479
rtoes -9.51758
lfemur -0.676499 -13.9453 -14.4455
ltibia 34.5001
lfoot -27.9975 6.48572
ltoes -0.517104
54
root 2.12093 17.0229 0.116064 349.003 -87.6427 -358.726
lowerback 13.4753 -3.94073 -1.95162
upperback 1.6388 -5.6389 -0.844741
thorax -5.69893 -2.76498 1.22626
lowerneck 40.3012 5.94254 -3.81441
upperneck 11.0486 3.59048 2.14619
head -1.98965 0.549844 0.929705
rclavicle -3.90301e-014 2.5842e-015
rhumerus 364.16 27.1372 57.147
rradius 38.668
rwrist -471.196
rhand -50.8648 27.3236
rfingers 7.12502
rthumb -23.419 -1.27134
lclavicle -3.90301e-014 2.5842e-015
lhumerus 2.55651 -37.2691 -63.8746
lradius 33.1439
lwrist 128.49
lhand -43.8305 22.505
lfingers 7.12502
lthumb -16.658 51.8102
rfemur 9.3214 9.91802 14.3951
rtibia 20.3293
rfoot -28.9343 -23.3939
rtoes -9.41389
lfemur -0.952921 -14.3148 -14.4899
ltibia 34.4573
lfoot -28.1228 6.70925
ltoes -0.485843
55
root 2.11534 17.0311 0.114979 349.595 -87.5373 -359.015
lowerback 13.035 -3.98342 -1.95488
upperback 1.91943 -5.68478 -0.854886
thorax -5.15908 -2.80341 1.17647
lowerneck 40.4554 5.99608 -3.9281
upperneck 10.5841 3.64873 2.16523
head -2.15975 0.591347 0.943203
rclavicle -7.01172e-015 -3.57812e-015
rhumerus 360.14 28.5087 53.198
rradius 38.8411
rwrist -473.359
rhand -52.4107 27.7742
rfingers 7.12502
rthumb -24.9011 -0.623804
lclavicle -7.01172e-015 -3.57812e-015
lhumerus -1.86424 -39.1244 -59.6696
lradius 32.9321
lwrist 129.722
lhand -47.5544 22.1422
lfingers 7.12502
lthumb -20.2402 51.1076
rfemur 9.15742 10.2018 14.5
rtibia 20.184
rfoot -29.1917 -23.7399
rtoes -9.33828
lfemur -1.24482 -14.6279 -14.4969
ltibia 34.4074
lfoot -28.1863 6.95761
ltoes -0.510309
56
root 2.11397 17.0379 0.115635 350.003 -87.4675 -359.168
lowerback 12.641 -4.01727 -1.98066
upperback 2.27699 -5.72351 -0.844861
thorax -4.56143 -2.8403 1.15788
lowerneck 40.2555 6.0309 -4.06985
upperneck 10.2071 3.70634 2.14644
head -2.27113 0.643672 0.949774
rclavicle 1.05325e-014 -8.15017e-015
rhumerus 355.931 29.2788 48.7244
rradius 38.8856
rwrist -474.591
rhand -53.3252 28.0889
rfingers 7.12502
rthumb -25.7772 -0.184898
lclavicle 1.05325e-014 -8.15017e-015
lhumerus -6.87958 -39.2085 -54.3794
lradius 32.7295
lwrist 128.862
lhand -50.6695 20.975
lfingers 7.12502
lthumb -23.2316 49.5937
rfemur 8.99007 10.4602 14.57
rtibia 20.0766
rfoot -29.4108 -24.0103
rtoes -9.24915
lfemur -1.48313 -14.9265 -14.5179
ltibia 34.3507
lfoot -28.274 7.1886
ltoes -0.473805
57
root 2.11527 17.0452 0.116892 349.682 -87.4017 -358.602
lowerback 12.24 -4.03627 -1.99553
upperback 2.69424 -5.74475 -0.879626
thorax -3.90566 -2.87114 1.07986
lowerneck 39.7717 5.9998 -4.16536
upperneck 9.85773 3.73728 2.13698
head -2.34829 0.693466 0.956899
rclavicle 2.95941e-014 1.25234e-014
rhumerus 351.518 28.8474 43.5558
rradius 38.6397
rwrist -473.895
rhand -53.618 27.8729
rfingers 7.12502
rthumb -26.0576 -0.359868
lclavicle 2.95941e-014 1.25234e-014
lhumerus -12.0043 -37.4757 -48.7319
lradius 32.4815
lwrist 125.745
lhand -52.8534 19.475
lfingers 7.12502
lthumb -25.3253 47.8136
rfemur 8.80635 10.7428 14.6097
rtibia 19.9937
rfoot -29.6126 -24.3228
rtoes -9.2046
lfemur -1.72647 -15.177 -14.5678
ltibia 34.2908
lfoot -28.3136 7.46038
ltoes -0.567601
58
root 2.12002 17.0501 0.118211 349.751 -87.3569 -358.457
lowerback 11.8683 -4.03913 -1.98019
upperback 3.15924 -5.7436 -0.918596
thorax -3.22213 -2.89226 0.977272
lowerneck 39.1333 5.9154 -4.1737
upperneck 9.44658 3.76459 2.07013
head -2.42865 0.757199 0.931944
rclavicle 1.22625e-014 3.97569e-016
rhumerus 347.195 27.2246 38.0343
rradius 38.0271
rwrist -471.246
rhand -53.3448 27.3343
rfingers 7.12502
rthumb -25.796 -0.936766
lclavicle 1.22625e-014 3.97569e-016
lhumerus -16.8264 -34.0854 -43.2817
lradius 32.1249
lwrist 120.614
lhand -53.9566 18.0598
lfingers 7.12502
lthumb -26.3818 46.2444
rfemur 8.62964 11.0419 14.6698
rtibia 19.941
rfoot -29.8704 -24.5641
rtoes -9.07703
lfemur -1.95029 -15.3458 -14.569
ltibia 34.2234
lfoot -28.3106 7.60934
ltoes -0.456928
59
root 2.12731 17.0548 0.120721 349.443 -87.3075 -358.003
lowerback 11.6202 -4.03965 -1.99409
upperback 3.6342 -5.74759 -0.937821
thorax -2.59219 -2.91506 0.921147
lowerneck 38.3221 5.82174 -4.23352
upperneck 9.05726 3.77606 2.00694
head -2.48492 0.815543 0.91924
rclavicle 1.59028e-015 6.75868e-015
rhumerus 343.178 24.9804 32.6079
rradius 37.1855
rwrist -467.182
rhand -52.7581 26.843
rfingers 7.12502
rthumb -25.234 -1.50845
lclavicle 1.59028e-015 6.75868e-015
lhumerus -21.1697 -29.1864 -38.3672
lradius 31.6609
lwrist 113.387
lhand -53.8388 17.3295
lfingers 7.12502
lthumb -26.269 45.5309
rfemur 8.50307 11.3036 14.7072
rtibia 19.9032
rfoot -30.0461 -24.8129
rtoes -9.01428
lfemur -2.10918 -15.471 -14.601
ltibia 34.1526
lfoot -28.2866 7.75575
ltoes -0.488071
60
root 2.13787 17.0575 0.123197 349.11 -87.269 -357.573
lowerback 11.4761 -4.02117 -1.99487
upperback 4.10024 -5.73003 -0.968231
thorax -2.03209 -2.92605 0.852284
lowerneck 37.4376 5.65451 -4.17676
upperneck 8.63804 3.74953 1.859
head -2.53695 0.867826 0.865245
rclavicle -5.99833e-014 1.55052e-014
rhumerus 339.315 22.5014 27.3399
rradius 36.3229
rwrist -462.168
rhand -52.0908 26.5746
rfingers 7.12502
rthumb -24.5945 -1.86545
lclavicle -5.99833e-014 1.55052e-014
lhumerus -24.7742 -22.408 -34.3558
lradius 30.9446
lwrist 103.853
lhand -52.6008 17.5409
lfingers 7.12502
lthumb -25.0833 45.9136
rfemur 8.40711 11.5921 14.7515
rtibia 19.8814
rfoot -30.2619 -25.0487
rtoes -9.00849
lfemur -2.22243 -15.5481 -14.6231
ltibia 34.0773
lfoot -28.2495 7.82006
ltoes -0.445909
61
root 2.15007 17.0617 0.126281 348.852 -87.242 -357.212
lowerback 11.3691 -4.0044 -1.9918
upperback 4.55366 -5.71638 -0.987134
thorax -1.50469 -2.93832 0.797164
lowerneck 36.4215 5.49901 -4.15365
upperneck 8.23455 3.7338 1.7338
head -2.56939 0.924514 0.824204
rclavicle -5.68773e-014 9.93923e-015
rhumerus 335.78 19.7919 22.2999
rradius 35.3091
rwrist -456.565
rhand -51.4336 26.7047
rfingers 7.12502
rthumb -23.9644 -1.81964
lclavicle -5.68773e-014 9.93923e-015
lhumerus -27.7977 -13.8013 -31.4149
lradius 29.9832
lwrist 92.2616
lhand -50.2375 18.2153
lfingers 7.12502
lthumb -22.817 46.8858
rfemur 8.29914 11.8847 14.8011
rtibia 19.8644
rfoot -30.4577 -25.3025
rtoes -8.94775
lfemur -2.35521 -15.6126 -14.6426
ltibia 34.0077
lfoot -28.1916 7.93216
ltoes -0.478242
